# xmcd
# Copyright (C) 1995-1998 Ti Kan
#
# Track frame offsets:
#       150
#       13342
#       29936
#       38718
#       65507
#       83841
#       96615
#       109315
#       119636
#       137781
#       147964
#       172205
#
# Disc length: 2712 seconds
#
# Revision: 0
# Processed by: cddbd v1.5.2PL0 Copyright (c) Steve Scherf et al.
# Submitted via: CD-Import v1.0
#
DISCID=bf0a960c
DTITLE=Verena Von Horsten - Mother Tongue
DYEAR=10
DGENRE=
TTITLE0=I Got My Head
TTITLE1=A Cowboy In New York
TTITLE2=It's No Sexual Thing
TTITLE3=My Faith In You
TTITLE4=Medea
TTITLE5=Junk Food
TTITLE6=Aim
TTITLE7=Admiral D.
TTITLE8=Last One Standing
TTITLE9=Failure
TTITLE10=This Time
TTITLE11=Temptation
EXTD=
EXTT0=
EXTT1=
EXTT2=
EXTT3=
EXTT4=
EXTT5=
EXTT6=
EXTT7=
EXTT8=
EXTT9=
EXTT10=
EXTT11=
PLAYORDER=
